<svg width="10" height="10" viewBox="0 0 10 10" fill="none" xmlns="http://www.w3.org/2000/svg">
<g opacity="0.7">
<path d="M5.74436 5L9.84589 0.898477C10.0514 0.69293 10.0514 0.359688 9.84589 0.15416C9.64034 -0.0513868 9.30708 -0.0513868 9.10155 0.15416L5 4.25569L0.898477 0.15416C0.69293 -0.0513868 0.359688 -0.0513868 0.15416 0.15416C-0.0513672 0.359707 -0.0513868 0.69295 0.15416 0.898477L4.25569 5L0.15416 9.10153C-0.0513868 9.30708 -0.0513868 9.64032 0.15416 9.84585C0.359707 10.0514 0.69295 10.0514 0.898477 9.84585L5 5.74432L9.10151 9.84585C9.30706 10.0514 9.64032 10.0514 9.84585 9.84585C10.0514 9.6403 10.0514 9.30706 9.84585 9.10153L5.74436 5Z" fill="#010C1C"/>
</g>
</svg>
