<svg xmlns="http://www.w3.org/2000/svg" width="138.813" height="21.9" viewBox="0 0 138.813 21.9">
  <defs>
    <style>
      .cls-1 {
        fill: #302d32;
        fill-rule: evenodd;
      }
    </style>
  </defs>
  <path id="logo" class="cls-1" d="M262.639,6359.19h-4.394v8.64h-8.57v-8.64h-4.394v21.32h4.394v-9.14h8.57v9.14h4.394v-21.32ZM284,6369.38a12.78,12.78,0,0,0-1.136-5.53,8.467,8.467,0,0,0-3.208-3.68,9.411,9.411,0,0,0-9.477,0,8.474,8.474,0,0,0-3.208,3.68,12.84,12.84,0,0,0-1.135,5.55v1.05a12.5,12.5,0,0,0,1.157,5.44,8.453,8.453,0,0,0,3.223,3.64,9.392,9.392,0,0,0,9.484-.01,8.391,8.391,0,0,0,3.186-3.66,12.937,12.937,0,0,0,1.114-5.53v-0.95Zm-4.453,1.03a9.055,9.055,0,0,1-1.2,5.06,4.211,4.211,0,0,1-6.855-.07,9.084,9.084,0,0,1-1.2-5.07v-1.04a8.84,8.84,0,0,1,1.216-5.04,4.231,4.231,0,0,1,6.84.02,8.969,8.969,0,0,1,1.2,5.1v1.04Zm7.646-11.22v21.32h4.395v-5.83l-0.44-10.05,5.742,15.88H299.9l5.757-15.89-0.44,10.06v5.83h4.41v-21.32H303.86l-5.449,15.46-5.479-15.46H287.19Zm39.111,8.64h-8.437v-5.09h9.873v-3.55H313.469v21.32h14.3v-3.53h-9.9v-5.71H326.3v-3.44Zm16.875,0.42h-8.437v-5.51h9.492v-3.55H330.344v21.32h4.395v-8.71h8.437v-3.55Zm21.123,1.13a12.78,12.78,0,0,0-1.135-5.53,8.474,8.474,0,0,0-3.208-3.68,9.411,9.411,0,0,0-9.477,0,8.467,8.467,0,0,0-3.208,3.68,12.84,12.84,0,0,0-1.136,5.55v1.05a12.509,12.509,0,0,0,1.158,5.44,8.451,8.451,0,0,0,3.222,3.64,9.394,9.394,0,0,0,9.485-.01,8.391,8.391,0,0,0,3.186-3.66,12.937,12.937,0,0,0,1.113-5.53v-0.95Zm-4.453,1.03a9.047,9.047,0,0,1-1.2,5.06,4.211,4.211,0,0,1-6.855-.07,9.084,9.084,0,0,1-1.2-5.07v-1.04a8.849,8.849,0,0,1,1.215-5.04,4.232,4.232,0,0,1,6.841.02,8.969,8.969,0,0,1,1.2,5.1v1.04Zm19.541,10.1H384.1v-0.2l-4.614-8.72a6.414,6.414,0,0,0,2.864-2.32,6.545,6.545,0,0,0,.945-3.64,5.81,5.81,0,0,0-2.051-4.76,8.978,8.978,0,0,0-5.83-1.68h-7.925v21.32h4.394v-7.8h3.5Zm-7.5-17.77h3.531a3.546,3.546,0,0,1,2.629.87,3.232,3.232,0,0,1,.857,2.37,3,3,0,0,1-.908,2.32,3.6,3.6,0,0,1-2.564.85h-3.545v-6.41Z" transform="translate(-245.281 -6358.91)"/>
</svg>
